<svg  viewBox="0 0 16 16" fill="current" xmlns="http://www.w3.org/2000/svg">
<path fill-rule="evenodd" clip-rule="evenodd" d="M8.00006 0C8.22857 0 8.44617 0.0977182 8.59798 0.268509L14.998 7.46851C15.2915 7.79874 15.2618 8.30439 14.9315 8.59793C14.6013 8.89146 14.0957 8.86172 13.8021 8.53149L8.80006 2.90416V15.2C8.80006 15.6418 8.44189 16 8.00006 16C7.55823 16 7.20006 15.6418 7.20006 15.2V2.90416L2.19798 8.53149C1.90445 8.86172 1.39879 8.89146 1.06857 8.59793C0.73834 8.30439 0.708596 7.79874 1.00213 7.46851L7.40213 0.268509C7.55394 0.0977182 7.77155 0 8.00006 0Z" />
</svg>
