<svg viewBox="0 0 20 20" fill="current" xmlns="http://www.w3.org/2000/svg">
<path d="M15.1224 0.871839C15.0034 0.753971 14.8622 0.660456 14.7067 0.59665C14.5511 0.532844 14.3844 0.5 14.216 0.5C14.0477 0.5 13.8809 0.532844 13.7254 0.59665C13.5699 0.660456 13.4286 0.753971 13.3097 0.871839L4.79949 9.28603C4.70455 9.3797 4.62923 9.49097 4.57784 9.61346C4.52645 9.73595 4.5 9.86726 4.5 9.99987C4.5 10.1325 4.52645 10.2638 4.57784 10.3863C4.62923 10.5088 4.70455 10.62 4.79949 10.7137L13.3097 19.1279C13.8115 19.624 14.6206 19.624 15.1224 19.1279C15.6242 18.6318 15.6242 17.8318 15.1224 17.3357L7.70792 9.9948L15.1326 2.6539C15.6242 2.16789 15.6242 1.35786 15.1224 0.871839Z" fill="black"/>
</svg>
