<svg viewBox="0 0 24 24" fill="none" xmlns="http://www.w3.org/2000/svg">
<path d="M12 9.59998C10.0488 9.59998 8.40002 11.2488 8.40002 13.2C8.40002 15.1512 10.0488 16.8 12 16.8C13.9512 16.8 15.6 15.1512 15.6 13.2C15.6 11.2488 13.9512 9.59998 12 9.59998Z" fill="#333333"/>
<path d="M21.6 4.79995H18.4968L15.2484 1.55155C15.1372 1.4399 15.0049 1.35136 14.8593 1.29101C14.7137 1.23067 14.5576 1.19972 14.4 1.19995H9.6C9.44239 1.19972 9.28629 1.23067 9.14068 1.29101C8.99508 1.35136 8.86285 1.4399 8.7516 1.55155L5.5032 4.79995H2.4C1.0764 4.79995 0 5.87635 0 7.19995V20.4C0 21.7236 1.0764 22.8 2.4 22.8H21.6C22.9236 22.8 24 21.7236 24 20.4V7.19995C24 5.87635 22.9236 4.79995 21.6 4.79995ZM12 19.1999C8.748 19.1999 6 16.4519 6 13.2C6 9.94795 8.748 7.19995 12 7.19995C15.252 7.19995 18 9.94795 18 13.2C18 16.4519 15.252 19.1999 12 19.1999Z" fill="#333333"/>
</svg>
