<svg width="20" height="20" viewBox="0 0 20 20" fill="none" xmlns="http://www.w3.org/2000/svg">
<path fill-rule="evenodd" clip-rule="evenodd" d="M11 15.4103H12C13.8482 15.4103 15.626 14.6575 16.9409 13.3089C18.2565 11.9595 19 10.1241 19 8.20513C19 6.28615 18.2565 4.45072 16.9409 3.10133C15.626 1.7528 13.8482 1 12 1H8C6.15177 1 4.37396 1.7528 3.05915 3.10133C1.74349 4.45072 1 6.28616 1 8.20513C1 11.1283 2.5142 13.3026 4.74137 15.0459C6.58937 16.4924 8.85826 17.5847 11 18.4992V15.4103ZM12 20C11.6743 19.8664 11.3402 19.7284 11 19.5854C6.1178 17.5327 0 14.4376 0 8.20513C0 6.02899 0.842855 3.94199 2.34315 2.40323C3.84344 0.864467 5.87827 0 8 0H12C14.1217 0 16.1566 0.864467 17.6569 2.40323C19.1571 3.94199 20 6.02899 20 8.20513C20 10.3813 19.1571 12.4683 17.6569 14.007C16.1566 15.5458 14.1217 16.4103 12 16.4103V20Z" fill="#333333"/>
</svg>
