<svg width="20" height="20" viewBox="0 0 20 20" fill="none" xmlns="http://www.w3.org/2000/svg">
<path d="M1.44305 1.44305C1.72673 1.15937 2.11149 1 2.51267 1C2.91385 1 3.29861 1.15937 3.58229 1.44305L10 7.86076L16.4177 1.44305C16.7014 1.15937 17.0861 1 17.4873 1C17.8885 1 18.2733 1.15937 18.5569 1.44305C18.8406 1.72673 19 2.11149 19 2.51267C19 2.91385 18.8406 3.29861 18.5569 3.58229L12.1392 10L18.5569 16.4177C18.8406 16.7014 19 17.0861 19 17.4873C19 17.8885 18.8406 18.2733 18.5569 18.5569C18.2733 18.8406 17.8885 19 17.4873 19C17.0861 19 16.7014 18.8406 16.4177 18.5569L10 12.1392L3.58229 18.5569C3.29861 18.8406 2.91385 19 2.51267 19C2.11149 19 1.72673 18.8406 1.44305 18.5569C1.15937 18.2733 1 17.8885 1 17.4873C1 17.0861 1.15937 16.7014 1.44305 16.4177L7.86076 10L1.44305 3.58229C1.15937 3.29861 1 2.91385 1 2.51267C1 2.11149 1.15937 1.72673 1.44305 1.44305Z" fill="#333333"/>
</svg>
