<svg width="20" height="20" viewBox="0 0 20 20" fill="none" xmlns="http://www.w3.org/2000/svg">
<g clip-path="url(#clip0_570_7123)">
<path fill-rule="evenodd" clip-rule="evenodd" d="M10 0.5C10.5672 0.500008 11.027 0.936249 11.027 1.47437L11.0269 10.3881L13.9598 7.43695C14.3489 7.04541 14.9989 7.02728 15.4116 7.39644C15.8243 7.7656 15.8434 8.38226 15.4543 8.77379L10.7471 13.5103C10.553 13.7055 10.2827 13.8162 9.99983 13.8162C9.71697 13.8162 9.44663 13.7055 9.25258 13.5103L4.54537 8.77379C4.15626 8.38226 4.17537 7.7656 4.58807 7.39644C5.00077 7.02728 5.65076 7.04541 6.03988 7.43695L8.97284 10.3881L8.97297 1.47435C8.97298 0.936222 9.4328 0.499992 10 0.5ZM1.52703 11.8675C2.09424 11.8675 2.55405 12.3038 2.55405 12.8419V16.6311C2.55405 16.893 2.65804 17.1335 2.82576 17.3023C2.99156 17.4691 3.20307 17.5513 3.40991 17.5513H16.5901C16.7969 17.5513 17.0084 17.4691 17.1742 17.3023C17.342 17.1335 17.4459 16.893 17.4459 16.6311V12.8419C17.4459 12.3038 17.9058 11.8675 18.473 11.8675C19.0402 11.8675 19.5 12.3038 19.5 12.8419V16.6311C19.5 17.3741 19.2072 18.0973 18.6687 18.6392C18.1283 19.1829 17.382 19.5 16.5901 19.5H3.40991C2.618 19.5 1.87168 19.1829 1.33126 18.6392C0.792768 18.0973 0.5 17.3741 0.5 16.6311V12.8419C0.5 12.3038 0.959816 11.8675 1.52703 11.8675Z" fill="#333333"/>
</g>
<defs>
<clipPath id="clip0_570_7123">
<rect width="20" height="20" fill="white"/>
</clipPath>
</defs>
</svg>
