<svg width="20" height="20" viewBox="0 0 20 20" fill="none" xmlns="http://www.w3.org/2000/svg">
<g clip-path="url(#clip0_1685_14342)">
<path d="M17.0349 0.625C17.2421 0.625 17.4408 0.707257 17.5873 0.853677C17.7339 1.0001 17.8162 1.19868 17.8162 1.40575V5.31889H18.5974C18.8046 5.31889 19.0033 5.40115 19.1498 5.54757C19.2964 5.69399 19.3787 5.89257 19.3787 6.09964C19.3787 6.30671 19.2964 6.5053 19.1498 6.65172C19.0033 6.79814 18.8046 6.8804 18.5974 6.8804H17.8162V13.9041C17.8162 14.1111 17.7339 14.3097 17.5873 14.4561C17.4408 14.6026 17.2421 14.6848 17.0349 14.6848C16.8277 14.6848 16.629 14.6026 16.4825 14.4561C16.336 14.3097 16.2537 14.1111 16.2537 13.9041V1.40575C16.2537 1.19868 16.336 1.0001 16.4825 0.853677C16.629 0.707257 16.8277 0.625 17.0349 0.625ZM9.22246 2.18651H13.1287V4.14464C13.1287 4.78954 12.8818 5.25018 12.5037 5.56248C12.1115 5.88884 11.5193 6.09652 10.7896 6.09652C10.5824 6.09652 10.3837 6.17878 10.2372 6.3252C10.0907 6.47162 10.0084 6.6702 10.0084 6.87727C10.0084 7.08434 10.0907 7.28293 10.2372 7.42935C10.3837 7.57577 10.5824 7.65803 10.7896 7.65803C11.8021 7.65803 12.7709 7.37071 13.5006 6.76484C14.249 6.14649 14.6912 5.24081 14.6912 4.14464V1.40575C14.6912 1.19868 14.6089 1.0001 14.4624 0.853677C14.3158 0.707257 14.1171 0.625 13.9099 0.625H9.22246C9.01526 0.625 8.81655 0.707257 8.67003 0.853677C8.52352 1.0001 8.44121 1.19868 8.44121 1.40575C8.44121 1.61282 8.52352 1.81141 8.67003 1.95783C8.81655 2.10425 9.01526 2.18651 9.22246 2.18651ZM7.58809 5.78422C7.52717 5.64522 7.42705 5.52697 7.29995 5.44394C7.17286 5.36091 7.02431 5.31669 6.87247 5.31669C6.72063 5.31669 6.57208 5.36091 6.44498 5.44394C6.31789 5.52697 6.21776 5.64522 6.15685 5.78422L0.694371 18.2763C0.651783 18.3704 0.628315 18.4721 0.625326 18.5753C0.622338 18.6786 0.639889 18.7815 0.676963 18.8779C0.714036 18.9743 0.769895 19.0625 0.841301 19.1372C0.912707 19.2119 0.998241 19.2717 1.09294 19.3131C1.18765 19.3546 1.28964 19.3768 1.393 19.3785C1.49637 19.3803 1.59906 19.3615 1.69511 19.3233C1.79117 19.2851 1.87868 19.2283 1.95258 19.156C2.02648 19.0838 2.08529 18.9976 2.12561 18.9024L3.96936 14.6864H9.78496L11.6334 18.9024C11.7203 19.0858 11.8753 19.2282 12.0654 19.2993C12.2556 19.3705 12.466 19.3649 12.652 19.2837C12.8381 19.2025 12.9853 19.052 13.0623 18.8643C13.1393 18.6765 13.1401 18.4662 13.0646 18.2778L7.58965 5.78578L7.58809 5.78422ZM9.09902 13.1233H4.65217L6.87403 8.04528L9.09746 13.1233H9.09902Z" fill="#333333"/>
</g>
<defs>
<clipPath id="clip0_1685_14342">
<rect width="20" height="20" fill="white"/>
</clipPath>
</defs>
</svg>
