<svg width="134" height="22" viewBox="0 0 134 22" fill="none" xmlns="http://www.w3.org/2000/svg">
<path d="M134 11C134 4.92487 129.075 0 123 0H122C115.373 0 110 5.37258 110 12V19.1242C110 20.7125 111.288 22 112.876 22H123C129.075 22 134 17.0751 134 11Z" fill="#686DF2"/>
<rect width="2.71502" height="7.59501" rx="1.35751" transform="matrix(0.866358 -0.499423 -0.500577 -0.865692 126.647 14.9308)" fill="url(#paint0_linear_1926_15530)"/>
<rect width="2.71502" height="7.59501" rx="1.35751" transform="matrix(0.866358 0.499423 -0.500577 0.865692 124.302 7)" fill="url(#paint1_linear_1926_15530)"/>
<rect width="2.71502" height="7.59501" rx="1.35751" transform="matrix(-0.866358 0.499423 -0.500577 -0.865692 124.149 13.575)" fill="url(#paint2_linear_1926_15530)"/>
<path d="M115.743 13.455C115.332 12.6017 115.693 11.5781 116.547 11.169C117.401 10.7595 118.427 11.1196 118.838 11.9737L119.58 13.5172L118.031 14.2593C117.177 14.6684 116.153 14.3083 115.743 13.455Z" fill="white"/>
<path d="M12.3 8.72C10.88 8.72 9.96 9.24 9.4 10.04C8.84 9.2 7.96 8.72 6.78 8.72C5.44 8.72 4.56 9.24 4.1 9.92V9H1.1V19H4.1V13.36C4.1 12.18 4.66 11.48 5.66 11.48C6.62 11.48 7.1 12.12 7.1 13.12V19H10.1V13.36C10.1 12.18 10.66 11.48 11.66 11.48C12.62 11.48 13.1 12.12 13.1 13.12V19H16.1V12.86C16.1 10.36 14.6 8.72 12.3 8.72ZM20.8308 15.2H27.9308C28.0108 14.82 28.0508 14.42 28.0508 14C28.0508 10.98 25.8908 8.72 22.9708 8.72C19.8108 8.72 17.6508 11.02 17.6508 14C17.6508 16.98 19.7708 19.28 23.1908 19.28C25.0908 19.28 26.5708 18.58 27.5508 17.22L25.1508 15.84C24.7508 16.28 24.0508 16.6 23.2308 16.6C22.1308 16.6 21.2108 16.24 20.8308 15.2ZM20.7708 12.96C21.0508 11.94 21.8108 11.38 22.9508 11.38C23.8508 11.38 24.7508 11.8 25.0708 12.96H20.7708ZM40.9523 8.72C39.5323 8.72 38.6123 9.24 38.0523 10.04C37.4923 9.2 36.6123 8.72 35.4323 8.72C34.0923 8.72 33.2123 9.24 32.7523 9.92V9H29.7523V19H32.7523V13.36C32.7523 12.18 33.3123 11.48 34.3123 11.48C35.2723 11.48 35.7523 12.12 35.7523 13.12V19H38.7523V13.36C38.7523 12.18 39.3123 11.48 40.3123 11.48C41.2723 11.48 41.7523 12.12 41.7523 13.12V19H44.7523V12.86C44.7523 10.36 43.2523 8.72 40.9523 8.72ZM51.6031 19.28C54.5431 19.28 56.9031 16.98 56.9031 14C56.9031 11.02 54.5431 8.72 51.6031 8.72C48.6631 8.72 46.3031 11.02 46.3031 14C46.3031 16.98 48.6631 19.28 51.6031 19.28ZM51.6031 16.36C50.3031 16.36 49.3031 15.42 49.3031 14C49.3031 12.58 50.3031 11.64 51.6031 11.64C52.9031 11.64 53.9031 12.58 53.9031 14C53.9031 15.42 52.9031 16.36 51.6031 16.36ZM63.4 19.28C65.36 19.28 67.06 18.26 67.92 16.7L65.3 15.2C64.98 15.9 64.24 16.32 63.36 16.32C62.06 16.32 61.1 15.38 61.1 14C61.1 12.62 62.06 11.68 63.36 11.68C64.24 11.68 64.96 12.1 65.3 12.8L67.92 11.28C67.06 9.74 65.34 8.72 63.4 8.72C60.36 8.72 58.1 11.02 58.1 14C58.1 16.98 60.36 19.28 63.4 19.28ZM74.9873 8.72C73.6673 8.72 72.6673 9.2 72.1273 9.94V5H69.1273V19H72.1273V13.54C72.1273 12.12 72.8873 11.48 73.9873 11.48C74.9473 11.48 75.7273 12.06 75.7273 13.3V19H78.7273V12.86C78.7273 10.16 77.0073 8.72 74.9873 8.72ZM88.0475 9V9.94C87.3875 9.18 86.4075 8.72 85.0675 8.72C82.4475 8.72 80.2875 11.02 80.2875 14C80.2875 16.98 82.4475 19.28 85.0675 19.28C86.4075 19.28 87.3875 18.82 88.0475 18.06V19H91.0475V9H88.0475ZM85.6675 16.44C84.2875 16.44 83.2875 15.5 83.2875 14C83.2875 12.5 84.2875 11.56 85.6675 11.56C87.0475 11.56 88.0475 12.5 88.0475 14C88.0475 15.5 87.0475 16.44 85.6675 16.44ZM99.1084 11.88V9H97.0484V6.2L94.0484 7.1V9H92.4484V11.88H94.0484V15.42C94.0484 18.22 95.1884 19.4 99.1084 19V16.28C97.7884 16.36 97.0484 16.28 97.0484 15.42V11.88H99.1084Z" fill="#686DF2"/>
<defs>
<linearGradient id="paint0_linear_1926_15530" x1="2.3504" y1="1.86679" x2="1.30591" y2="6.69407" gradientUnits="userSpaceOnUse">
<stop stop-color="white"/>
<stop offset="1" stop-color="#B7B9FE"/>
</linearGradient>
<linearGradient id="paint1_linear_1926_15530" x1="1.51654" y1="3.08414" x2="1.11763" y2="8.44107" gradientUnits="userSpaceOnUse">
<stop stop-color="white"/>
<stop offset="0.715864" stop-color="#888AFB"/>
</linearGradient>
<linearGradient id="paint2_linear_1926_15530" x1="1.35751" y1="0" x2="1.12259" y2="8.44075" gradientUnits="userSpaceOnUse">
<stop stop-color="white"/>
<stop offset="1" stop-color="white"/>
</linearGradient>
</defs>
</svg>
