<svg viewBox="0 0 108 15" fill="current" xmlns="http://www.w3.org/2000/svg">
<path d="M15.0442 14H12.2297V5.46579L8.87051 14H6.5463L3.18709 5.57474V14H0.463409V1.12605H4.20394L7.74472 9.82368L11.1039 1.12605H15.0442V14ZM25.649 14H17.4779V1.12605H25.6308V3.83158H20.3469V6.28289H25.1406V8.80684H20.3469V11.2763H25.649V14ZM42.2818 14H39.4673V5.46579L36.1081 14H33.7839L30.4246 5.57474V14H27.701V1.12605H31.4415L34.9823 9.82368L38.3415 1.12605H42.2818V14ZM48.0565 4.66684C47.3181 5.33263 46.9489 6.295 46.9489 7.55395C46.9489 8.81289 47.3181 9.77526 48.0565 10.4411C48.8071 11.1068 49.6786 11.4397 50.6713 11.4397C51.6639 11.4397 52.5294 11.1068 53.2678 10.4411C54.0063 9.77526 54.3755 8.81289 54.3755 7.55395C54.3755 6.295 54.0063 5.33263 53.2678 4.66684C52.5294 3.98895 51.6639 3.65 50.6713 3.65C49.6786 3.65 48.8071 3.98895 48.0565 4.66684ZM43.971 7.5721C43.971 5.57474 44.6186 3.95868 45.9139 2.72395C47.2213 1.4771 48.8071 0.853683 50.6713 0.853683C52.5355 0.853683 54.1152 1.4771 55.4105 2.72395C56.7057 3.97079 57.3534 5.58684 57.3534 7.5721C57.3534 9.55737 56.7057 11.1734 55.4105 12.4203C54.1152 13.655 52.5355 14.2724 50.6713 14.2724C48.8071 14.2724 47.2213 13.655 45.9139 12.4203C44.6186 11.1734 43.971 9.55737 43.971 7.5721ZM64.9723 14.2724C63.0839 14.2724 61.4981 13.655 60.2149 12.4203C58.9318 11.1734 58.2902 9.56342 58.2902 7.59026C58.2902 5.62921 58.9378 4.01921 60.2331 2.76026C61.5284 1.48921 63.096 0.853683 64.936 0.853683C65.856 0.853683 66.6852 0.992893 67.4236 1.27131C68.1742 1.53763 68.7794 1.89474 69.2394 2.34263C69.6994 2.79053 70.0686 3.25053 70.3471 3.72263C70.6255 4.19474 70.8192 4.685 70.9281 5.19342L68.2226 6.04684C68.1621 5.79263 68.0652 5.54447 67.9321 5.30237C67.7989 5.04816 67.6113 4.79395 67.3692 4.53974C67.1271 4.27342 66.7942 4.06158 66.3705 3.90421C65.9468 3.73474 65.4686 3.65 64.936 3.65C63.9676 3.65 63.1142 3.995 62.3757 4.685C61.6373 5.36289 61.2681 6.33131 61.2681 7.59026C61.2681 8.75237 61.6313 9.67842 62.3576 10.3684C63.0839 11.0584 63.9555 11.4034 64.9723 11.4034C65.9649 11.4034 66.7336 11.1553 67.2784 10.6589C67.8231 10.1626 68.1802 9.60579 68.3497 8.98842L71.0915 9.76921C70.9705 10.2655 70.7707 10.7558 70.4923 11.24C70.226 11.7242 69.8568 12.2024 69.3847 12.6745C68.9247 13.1466 68.3073 13.5339 67.5326 13.8366C66.7699 14.1271 65.9165 14.2724 64.9723 14.2724ZM83.5925 14H80.7054V8.87947H75.5667V14H72.6978V1.12605H75.5667V6.17395H80.7054V1.12605H83.5925V14ZM94.6313 14L93.7052 11.3853H88.7299L87.8039 14H84.7897L89.6378 1.12605H92.9607L97.7544 14H94.6313ZM91.2539 4.32184L89.6741 8.77053H92.7973L91.2539 4.32184ZM107.541 3.86789H103.564V14H100.695V3.86789H96.7366V1.12605H107.541V3.86789Z" />
</svg>