<svg viewBox="0 0 7 11" fill="current" xmlns="http://www.w3.org/2000/svg">
<path d="M0.71625 0.591251C0.745324 0.562249 0.77983 0.539263 0.817793 0.523606C0.855757 0.507948 0.896434 0.499927 0.9375 0.5H5.3125C5.39538 0.5 5.47487 0.532925 5.53347 0.59153C5.59208 0.650135 5.625 0.72962 5.625 0.8125C5.625 1.2375 5.41125 1.54625 5.22125 1.73688C5.1425 1.815 5.065 1.87688 5 1.92313V4.6925L5.04875 4.7225C5.17562 4.80188 5.34625 4.91875 5.51813 5.06938C5.85 5.35938 6.25 5.82938 6.25 6.4375C6.25 6.52038 6.21708 6.59987 6.15847 6.65847C6.09987 6.71708 6.02038 6.75 5.9375 6.75H3.4375V9.5625C3.4375 9.735 3.2975 10.5 3.125 10.5C2.9525 10.5 2.8125 9.735 2.8125 9.5625V6.75H0.3125C0.22962 6.75 0.150134 6.71708 0.0915292 6.65847C0.0329241 6.59987 0 6.52038 0 6.4375C0 5.82938 0.4 5.35938 0.73125 5.06938C0.892937 4.92898 1.06651 4.80288 1.25 4.6925V1.92313C1.17118 1.86732 1.09718 1.80502 1.02875 1.73688C0.83875 1.54625 0.625 1.23688 0.625 0.8125C0.624927 0.771435 0.632948 0.730758 0.648605 0.692794C0.664263 0.65483 0.687249 0.620325 0.71625 0.591251Z" />
</svg>
