<svg viewBox="0 0 14 14" fill="current" xmlns="http://www.w3.org/2000/svg">
<path d="M7.00102 0.912109C7.20281 0.912109 7.39634 0.992272 7.53904 1.13496C7.68173 1.27765 7.76189 1.47118 7.76189 1.67298V6.2382H12.3271C12.5289 6.2382 12.7224 6.31836 12.8651 6.46105C13.0078 6.60374 13.088 6.79727 13.088 6.99907C13.088 7.20086 13.0078 7.39439 12.8651 7.53708C12.7224 7.67977 12.5289 7.75993 12.3271 7.75993H7.76189V12.3252C7.76189 12.5269 7.68173 12.7205 7.53904 12.8632C7.39634 13.0059 7.20281 13.086 7.00102 13.086C6.79922 13.086 6.60569 13.0059 6.463 12.8632C6.32031 12.7205 6.24015 12.5269 6.24015 12.3252V7.75993H1.67493C1.47314 7.75993 1.27961 7.67977 1.13692 7.53708C0.994225 7.39439 0.914062 7.20086 0.914062 6.99907C0.914062 6.79727 0.994225 6.60374 1.13692 6.46105C1.27961 6.31836 1.47314 6.2382 1.67493 6.2382H6.24015V1.67298C6.24015 1.47118 6.32031 1.27765 6.463 1.13496C6.60569 0.992272 6.79922 0.912109 7.00102 0.912109Z" />
</svg>
