<svg width="32" height="32" viewBox="0 0 32 32" fill="none" xmlns="http://www.w3.org/2000/svg">
<circle cx="16" cy="16" r="15.5" fill="#F7B976" stroke="#F2994A"/>
<path fill-rule="evenodd" clip-rule="evenodd" d="M15.9998 8C16.2283 8 16.4459 8.09772 16.5977 8.26851L22.9977 15.4685C23.2913 15.7987 23.2615 16.3044 22.9313 16.5979C22.6011 16.8915 22.0954 16.8617 21.8019 16.5315L16.7998 10.9042V23.2C16.7998 23.6418 16.4416 24 15.9998 24C15.558 24 15.1998 23.6418 15.1998 23.2V10.9042L10.1977 16.5315C9.90421 16.8617 9.39855 16.8915 9.06832 16.5979C8.7381 16.3044 8.70835 15.7987 9.00189 15.4685L15.4019 8.26851C15.5537 8.09772 15.7713 8 15.9998 8Z" fill="white"/>
</svg>
