<svg viewBox="0 0 20 16" fill="current" xmlns="http://www.w3.org/2000/svg">
<path d="M12.5509 4.23535C12.4478 4.12917 12.3659 4.00313 12.3101 3.86442C12.2543 3.72572 12.2256 3.57707 12.2257 3.42696C12.2257 3.27685 12.2545 3.12822 12.3104 2.98955C12.3663 2.85089 12.4482 2.72491 12.5515 2.6188C12.6547 2.51269 12.7772 2.42854 12.9121 2.37115C13.0469 2.31375 13.1915 2.28424 13.3374 2.28429C13.4833 2.28434 13.6278 2.31396 13.7627 2.37146C13.8975 2.42895 14.02 2.51319 14.1231 2.61937L19.6752 8.33815C19.8832 8.55242 20 8.84281 20 9.14557C20 9.44833 19.8832 9.73872 19.6752 9.95299L14.122 15.6649C13.9137 15.8794 13.631 15.9999 13.3363 16C13.0416 16.0001 12.7588 15.8798 12.5504 15.6655C12.3419 15.4512 12.2247 15.1605 12.2246 14.8573C12.2245 14.5542 12.3415 14.2634 12.5498 14.0489L16.2109 10.2856L8.88875 10.2856C6.57942 10.2855 4.36076 9.36107 2.70251 7.70791C1.04426 6.05475 0.0766097 3.80268 0.00444349 1.42853L1.29886e-06 1.14282C1.32535e-06 0.839719 0.117063 0.549031 0.325433 0.334707C0.533803 0.120383 0.816415 -2.26579e-05 1.11109 -2.26322e-05C1.40577 -2.26064e-05 1.68839 0.120384 1.89676 0.334708C2.10513 0.549032 2.22219 0.839719 2.22219 1.14282C2.22213 2.91694 2.89058 4.62204 4.08712 5.89987C5.28365 7.17769 6.91513 7.92877 8.63875 7.9953L8.88875 7.99987L16.2064 7.99987L12.5509 4.23535Z" />
</svg>
