<svg viewBox="0 0 22 24" fill="none" xmlns="http://www.w3.org/2000/svg">
<path d="M20.6 0H3.80001C2.35281 0 0.200012 0.9588 0.200012 3.6V20.4C0.200012 23.0412 2.35281 24 3.80001 24H21.8V21.6H3.81441C3.26001 21.5856 2.60001 21.3672 2.60001 20.4C2.60001 19.4328 3.26001 19.2144 3.81441 19.2H21.8V1.2C21.8 0.88174 21.6736 0.576515 21.4485 0.351472C21.2235 0.126428 20.9183 0 20.6 0ZM8.00361 3.6C8.48196 3.6 8.94071 3.79002 9.27895 4.12826C9.61719 4.4665 9.80721 4.92526 9.80721 5.4036C9.80721 5.88194 9.61719 6.3407 9.27895 6.67894C8.94071 7.01718 8.48196 7.2072 8.00361 7.2072C7.52527 7.2072 7.06651 7.01718 6.72827 6.67894C6.39003 6.3407 6.20001 5.88194 6.20001 5.4036C6.20001 4.92526 6.39003 4.4665 6.72827 4.12826C7.06651 3.79002 7.52527 3.6 8.00361 3.6ZM11 13.2H5.00001L8.60001 9.6L10.4 11.2788L14 7.2L18.2 13.2H11Z" fill="#686DF2"/>
</svg>
