<svg viewBox="0 0 16 16" fill="none" xmlns="http://www.w3.org/2000/svg">
<g clip-path="url(#clip0_1816_15174)">
<path d="M3.90202 15.3026C3.99715 15.3969 4.11016 15.4717 4.23457 15.5228C4.35899 15.5738 4.49237 15.6001 4.62708 15.6001C4.76178 15.6001 4.89516 15.5738 5.01958 15.5228C5.144 15.4717 5.25701 15.3969 5.35214 15.3026L12.1603 8.57128C12.2363 8.49634 12.2965 8.40732 12.3376 8.30933C12.3787 8.21134 12.3999 8.10629 12.3999 8.00021C12.3999 7.89412 12.3787 7.78907 12.3376 7.69108C12.2965 7.59309 12.2363 7.50407 12.1603 7.42913L5.35214 0.697782C4.95069 0.300867 4.30346 0.300867 3.90202 0.697782C3.50057 1.0947 3.50057 1.73462 3.90202 2.13154L9.83357 8.00426L3.89383 13.877C3.50058 14.2658 3.50057 14.9138 3.90202 15.3026Z" fill="#828282"/>
</g>
<defs>
<clipPath id="clip0_1816_15174">
<rect width="16" height="16" fill="white" transform="translate(16 16) rotate(-180)"/>
</clipPath>
</defs>
</svg>
