<svg viewBox="0 0 22 24" fill="none" xmlns="http://www.w3.org/2000/svg">
<path d="M2.34111 12.6315L11.3449 3.78579C11.7784 3.35992 12.2932 3.02213 12.8596 2.79169C13.4261 2.56125 14.0332 2.44269 14.6463 2.44277C15.2594 2.44284 15.8665 2.56156 16.4329 2.79214C16.9993 3.02272 17.514 3.36065 17.9474 3.78663C18.3809 4.2126 18.7247 4.71829 18.9593 5.27482C19.1939 5.83134 19.3145 6.42781 19.3145 7.03016C19.3144 7.6325 19.1935 8.22894 18.9588 8.7854C18.7241 9.34187 18.3802 9.84747 17.9466 10.2733L7.14345 20.8869C6.74523 21.2781 6.20514 21.4979 5.64197 21.4979C5.07881 21.4979 4.53871 21.2781 4.1405 20.8869C3.74228 20.4957 3.51857 19.9651 3.51857 19.4118C3.51857 18.8585 3.74228 18.3279 4.1405 17.9367L13.7435 8.50219C13.9684 8.26508 14.0908 7.95146 14.085 7.62742C14.0792 7.30337 13.9455 6.9942 13.7123 6.76503C13.479 6.53585 13.1643 6.40458 12.8345 6.39887C12.5047 6.39315 12.1854 6.51343 11.9441 6.73437L2.34111 16.1688C1.46544 17.0291 0.973491 18.196 0.973491 19.4126C0.973491 20.6293 1.46544 21.7961 2.34111 22.6564C3.21678 23.5167 4.40444 24 5.64282 24C6.88121 24 8.06887 23.5167 8.94454 22.6564L19.746 12.0412C21.073 10.7067 21.8109 8.91217 21.7999 7.04666C21.7888 5.18116 21.0296 3.39514 19.6869 2.07601C18.3442 0.756873 16.5263 0.010984 14.6275 0.000120343C12.7286 -0.0107433 10.902 0.714295 9.54377 2.01798L0.541713 10.8621C0.316823 11.0992 0.194391 11.4128 0.200211 11.7368C0.20603 12.0609 0.339646 12.37 0.572911 12.5992C0.806175 12.8284 1.12087 12.9597 1.45071 12.9654C1.78054 12.9711 2.09976 12.8508 2.34111 12.6299V12.6315Z" fill="#6FCF97"/>
</svg>
