<svg viewBox="0 0 20 20" fill="current" xmlns="http://www.w3.org/2000/svg">
<path fill-rule="evenodd" clip-rule="evenodd" d="M0.5 3.50962C0.5 2.95202 0.944374 2.5 1.49254 2.5H18.5075C19.0556 2.5 19.5 2.95202 19.5 3.50962C19.5 4.06721 19.0556 4.51923 18.5075 4.51923H1.49254C0.944374 4.51923 0.5 4.06721 0.5 3.50962ZM0.5 10C0.5 9.4424 0.944374 8.99038 1.49254 8.99038H18.5075C19.0556 8.99038 19.5 9.4424 19.5 10C19.5 10.5576 19.0556 11.0096 18.5075 11.0096H1.49254C0.944374 11.0096 0.5 10.5576 0.5 10ZM0.5 16.4904C0.5 15.9328 0.944374 15.4808 1.49254 15.4808H18.5075C19.0556 15.4808 19.5 15.9328 19.5 16.4904C19.5 17.048 19.0556 17.5 18.5075 17.5H1.49254C0.944374 17.5 0.5 17.048 0.5 16.4904Z" />
</svg>
